# Blender v2.82 (sub 7) OBJ File: ''
# www.blender.org
v -1.000000 -1.000000 1.000000
v -1.000000 1.000000 1.000000
v -1.000000 -1.000000 -1.000000
v -1.000000 1.000000 -1.000000
v 1.000000 -1.000000 1.000000
v 1.000000 1.000000 1.000000
v 1.000000 -1.000000 -1.000000
v 1.000000 1.000000 -1.000000
v -0.171142 1.101781 -2.458004
v -0.171142 -0.898219 -2.458004
v 0.124522 -0.914049 -2.441974
v 0.124522 1.085951 -2.441974
vn -1.0000 0.0000 0.0000
vn 0.0000 -0.9982 -0.0595
vn 1.0000 0.0000 0.0000
vn 0.0000 0.0000 1.0000
vn 0.0000 -1.0000 0.0000
vn 0.0000 1.0000 0.0000
vn 0.0541 0.0000 -0.9985
vn 0.0480 0.9942 0.0967
vn -0.8693 0.0000 -0.4942
vn 0.8548 0.0000 -0.5190
vn -0.0480 -0.9942 -0.0967
vn 0.0000 0.9982 0.0595
s off
f 2//1 3//1 1//1
f 3//2 11//2 7//2
f 8//3 5//3 7//3
f 6//4 1//4 5//4
f 7//5 1//5 3//5
f 4//6 6//6 8//6
f 10//7 12//7 11//7
f 4//8 12//8 9//8
f 4//9 10//9 3//9
f 8//10 11//10 12//10
f 2//1 4//1 3//1
f 3//11 10//11 11//11
f 8//3 6//3 5//3
f 6//4 2//4 1//4
f 7//5 5//5 1//5
f 4//6 2//6 6//6
f 10//7 9//7 12//7
f 4//12 8//12 12//12
f 4//9 9//9 10//9
f 8//10 7//10 11//10
