# Blender v2.82 (sub 7) OBJ File: ''
# www.blender.org
v 1.000000 1.000000 -1.000000
v 1.000000 -1.000000 -1.000000
v 1.000000 1.000000 1.000000
v 1.000000 -1.000000 1.000000
v -1.000000 1.000000 -1.000000
v -1.000000 -1.000000 -1.000000
v -1.000000 1.000000 1.000000
v -1.000000 -1.000000 1.000000
v 1.000000 1.000000 1.000000
v -1.000000 1.000000 1.000000
v 1.000000 1.000000 -1.000000
v -1.000000 1.000000 -1.000000
v 1.000000 1.000000 -1.000000
v 1.000000 -1.000000 -1.000000
v 1.000000 1.000000 1.000000
v 1.000000 -1.000000 1.000000
v 3.550854 1.000000 -1.000000
v 3.550854 -1.000000 -1.000000
v 3.550854 1.000000 1.000000
v 3.550854 -1.000000 1.000000
v 1.000000 3.572273 1.000000
v -1.000000 3.572273 1.000000
v 1.000000 3.572273 -1.000000
v -1.000000 3.572273 -1.000000
v 1.000000 4.859525 1.000000
v -1.000000 4.859525 1.000000
v 1.000000 4.859525 -1.000000
v -1.000000 4.859525 -1.000000
v 1.000000 4.859525 1.000000
v -1.000000 4.859525 1.000000
v 1.000000 4.859525 -1.000000
v -1.000000 4.859525 -1.000000
v 3.347570 3.572273 -1.000000
v 3.347570 3.572273 1.000000
v 3.347570 4.859525 -1.000000
v 3.347570 4.859525 1.000000
v 1.000000 6.207212 1.000000
v -1.000000 6.207212 1.000000
v 1.000000 6.207212 -1.000000
v -1.000000 6.207212 -1.000000
v 1.000000 7.599641 1.000000
v -1.000000 7.599641 1.000000
v 1.000000 7.599641 -1.000000
v -1.000000 7.599641 -1.000000
v 3.570961 6.207212 -1.000000
v 3.570961 6.207212 1.000000
v 3.570961 7.599641 -1.000000
v 3.570961 7.599641 1.000000
vn -1.0000 0.0000 0.0000
vn 0.0000 0.0000 1.0000
vn 0.0000 -1.0000 0.0000
vn 0.0000 0.0000 -1.0000
vn 1.0000 0.0000 0.0000
vn 0.0000 1.0000 0.0000
s off
f 7//1 24//1 5//1
f 9//2 8//2 4//2
f 10//1 6//1 8//1
f 2//3 8//3 6//3
f 9//2 16//2 15//2
f 12//4 2//4 6//4
f 3//2 10//2 9//2
f 1//2 9//2 11//2
f 7//2 12//2 10//2
f 5//2 11//2 12//2
f 14//3 20//3 16//3
f 2//2 13//2 14//2
f 4//2 14//2 16//2
f 11//2 15//2 13//2
f 17//5 20//5 18//5
f 16//2 19//2 15//2
f 15//6 17//6 13//6
f 13//4 18//4 14//4
f 22//1 28//1 24//1
f 3//2 22//2 7//2
f 5//4 23//4 1//4
f 1//5 21//5 3//5
f 27//2 32//2 31//2
f 21//2 26//2 22//2
f 24//4 27//4 23//4
f 25//6 35//6 27//6
f 30//1 40//1 32//1
f 25//2 31//2 29//2
f 28//2 30//2 32//2
f 26//2 29//2 30//2
f 33//5 36//5 34//5
f 21//2 36//2 25//2
f 23//3 34//3 21//3
f 27//4 33//4 23//4
f 40//4 43//4 39//4
f 29//2 38//2 30//2
f 32//4 39//4 31//4
f 31//5 37//5 29//5
f 44//6 41//6 43//6
f 37//2 48//2 41//2
f 38//1 44//1 40//1
f 37//2 42//2 38//2
f 45//5 48//5 46//5
f 39//3 46//3 37//3
f 43//4 45//4 39//4
f 41//6 47//6 43//6
f 7//1 22//1 24//1
f 9//2 10//2 8//2
f 10//1 12//1 6//1
f 2//3 4//3 8//3
f 9//2 4//2 16//2
f 12//4 11//4 2//4
f 3//2 7//2 10//2
f 1//2 3//2 9//2
f 7//2 5//2 12//2
f 5//2 1//2 11//2
f 14//3 18//3 20//3
f 2//2 11//2 13//2
f 4//2 2//2 14//2
f 11//2 9//2 15//2
f 17//5 19//5 20//5
f 16//2 20//2 19//2
f 15//6 19//6 17//6
f 13//4 17//4 18//4
f 22//1 26//1 28//1
f 3//2 21//2 22//2
f 5//4 24//4 23//4
f 1//5 23//5 21//5
f 27//2 28//2 32//2
f 21//2 25//2 26//2
f 24//4 28//4 27//4
f 25//6 36//6 35//6
f 30//1 38//1 40//1
f 25//2 27//2 31//2
f 28//2 26//2 30//2
f 26//2 25//2 29//2
f 33//5 35//5 36//5
f 21//2 34//2 36//2
f 23//3 33//3 34//3
f 27//4 35//4 33//4
f 40//4 44//4 43//4
f 29//2 37//2 38//2
f 32//4 40//4 39//4
f 31//5 39//5 37//5
f 44//6 42//6 41//6
f 37//2 46//2 48//2
f 38//1 42//1 44//1
f 37//2 41//2 42//2
f 45//5 47//5 48//5
f 39//3 45//3 46//3
f 43//4 47//4 45//4
f 41//6 48//6 47//6
